<svg version="1" xmlns="http://www.w3.org/2000/svg" width="840" height="840" viewBox="0 0 630.000000 630.000000"><path d="M0 315v315h630V0H0v315zM413.9 72.4c.9 1 4.2 1.4 12.9 1.5 12.9.2 14.7.3 14.7 1.3 0 .3 1.1 1.8 2.5 3.3 2.2 2.4 3.1 2.6 7.8 2.3 2.9-.3 5.2 0 5.2.5s.5.5 1.3-.1c1-.9 1.2-.4 1.1 2.1-.1 1.8-.6 4.3-1 5.7-.4 1.4-.8 4.1-.8 6.2-.1 2-.4 3.4-.8 3.1-.5-.2-.8.3-.8 1.1 0 .9-.5 1.6-1.1 1.6-.5 0-.8.4-.5.9.3.5-.4 1.1-1.5 1.4-1.2.3-1.8 1-1.4 1.7.4.6.1.9-.7.8-.7-.2-1.2.3-1 1 .1.6-.2 1.1-.7 1-1.8-.6-5.1 4.5-4.9 7.5.2 2.9 3.3 6.1 5 5.1.4-.3.8-.1.8.4 0 1.2 6 3.8 7.8 3.4.6-.2 1.2.1 1.2.6 0 1.1.5 1.2 11.5 1.8 12.6.7 13.5.9 13.5 4 0 1.4.4 2.3 1 1.9.6-.3 1-.2 1 .3 0 .7 3.5 1.2 11.2 1.6.9 0 1.5.3 1.2.7-1.1 1.8 6.4 5.6 11.9 6.2 5.9.5 8.7 1.9 8.7 4.3 0 1.3 11 12.7 11.7 12 .8-.7 5 3.9 5.7 6.1.4 1.3 1.2 2.3 1.7 2.3s.9.9.9 2.1c0 1.1.4 1.8.9 1.5.5-.3 1.1.3 1.4 1.4.3 1.3 1 1.8 2.1 1.4 1-.4 1.6-.1 1.6.7 0 .7.3 1 .6.6 1-1 3.2 1.8 3.9 4.9 1.2 5.1 3.5 9.3 6.1 11.1 1.4 1 3.4 2.6 4.5 3.5 1 1 1.9 1.6 1.9 1.3 0-.2 1 .6 2.3 1.8 1.3 1.2 2.2 2.5 2.1 2.8-.2.3.6 1.1 1.6 1.9 1 .8 1.7 1.8 1.4 2.2-.3.5-.1 1.5.6 2.2.6.8.9 3.1.7 5.1-.6 6.1-8.3 12.2-17.4 14-1.8.4-3.3 1.1-3.3 1.6 0 .6-.5.7-1 .4-.6-.3-1.3.2-1.7 1.2-.3 1-1.7 2.8-3.1 4-1.4 1.3-2.2 2.3-1.8 2.3.4 0-.5 1.2-1.9 2.6-2.4 2.4-4.4 3-10.7 3.3-1.5 0-3.3.8-4.2 1.6-.8.9-1.9 1.7-2.3 1.8-.4.1-.7.6-.5 1 .1.5-.2.6-.7.3-.5-.3-1.4.1-2.1.9-.7.8-.9 1.5-.5 1.5s-.3.8-1.6 1.8c-2 1.7-2.8 1.8-7.9.7-5.7-1.2-5.9-1.1-12 2.4-2.8 1.7-6.2 2-7.1.7-.4-.4-2.7-1.1-5.3-1.3-4.1-.5-4.9-.3-7.1 2.1-3 3.3-6.9 3.2-10.3-.2-1.8-1.7-3.5-2.2-7.2-2.2-2.8 0-5.2.1-5.5.2-.2.2-1.2-.7-2-2-.9-1.2-2.3-2.2-3.1-2.2-.8 0-1.3-.4-.9-.9.3-.6-.7-.6-2.6-.1-1.8.5-3.5.7-4 .4-.4-.2-2 .8-3.5 2.3-1.4 1.6-2.3 2.2-1.9 1.4.5-.9.4-1.2-.3-.7-.7.4-1.2 1.6-1.2 2.7s.4 1.8.9 1.4c.5-.3 1.2-.1 1.6.5.3.5 2.4 1 4.5 1 6.2 0 8.8 1.7 9.5 6.1.4 2.4 1.2 3.9 2.1 3.9.8 0 1.4.3 1.4.7 0 .5 2.3.7 5 .6 4.2-.1 12.7 1.3 9.5 1.6-.5.1 1.3 2.1 4 4.6 3.7 3.3 5.8 4.5 8.1 4.5 5.2 0 12.4 1.2 11.9 2-.3.4.5 1 1.7 1.3 1.2.4 1.9.9 1.5 1.3-.3.4 0 1.9.8 3.5.8 1.5 1.7 3.8 1.8 5.1.2 1.3 1.4 2.8 2.5 3.4 1.2.6 1.9 1.4 1.5 1.7-.3.4.1.7 1 .7s1.7.5 1.7 1.1c0 .5.5.7 1.2.3.6-.4.8-.3.4.4-.3.6 0 1.5.8 1.9 1.3.7 1.3 1.5.2 5.3-.7 2.5-1.7 4.4-2.2 4.2-.5-.2-1 .4-1.2 1.2-.4 2 3.2 6.8 4.3 5.8.5-.4.5-.2.1.5-.3.6-.2 1.4.3 1.7.5.3 1.2 2.3 1.6 4.3.4 2.4 1.8 4.9 3.8 6.7 3 2.8 3.1 3.1 3.6 13.9.4 7.5 1 11.2 1.9 11.5.6.2 1.2 1.1 1.2 1.9 0 .9.3 1.3.7 1 .3-.4 1.5 0 2.5 1 1.5 1.4 1.8 3.2 1.8 12.5 0 7.9.3 10.7 1.1 10.2.7-.4 1-.1.7.7-.3.8 1.5 3.5 4.1 6 5.4 5.4 5.6 5.9 5.3 12.4-.8 20.8.2 35.5 2.8 39 .9 1.2.7 4.2-.4 6.7-.5 1-.1 5.1.9 9.4 1.8 8.3 1.5 11.4-1.5 14.4-2.4 2.4-2.5 6.6-.5 13.4 1.2 3.9 1.3 5.7.4 8.3-2.2 6.7-2.8 19.5-1 21.8 1.8 2.2 2.5 9.7 2.5 26.7.1 9.8-.1 17.8-.4 17.8-.3 0-2.2-1.6-4.3-3.5-2.1-1.9-3.5-3.5-3.2-3.5.3 0-2.4-3-6-6.6-3.6-3.6-6.5-6.9-6.5-7.4s-.8-1.1-1.8-1.4c-1-.3-2.4-1.6-3.2-2.7-3.2-4.6-8.3-9.8-9.1-9.3-.5.3-.9 0-.9-.7 0-1.2-.8-2-19.4-21.1-6.3-6.4-11.2-11.9-10.9-12.1.2-.3-.5-.8-1.6-1.2-1.2-.3-2.7-1.8-3.5-3.3-.8-1.5-2.5-3.7-3.8-4.9l-2.4-2.3-2.8 7.3c-4.3 11.5-5.7 14.9-7.6 19.2-4.9 11-12.5 31.5-12.2 32.8.1.4-1.1.6-2.8.5-2.3-.2-2.9-.6-2.5-1.9.3-1 .1-2-.5-2.4-.9-.6-2.9-4.3-3.5-6.5 0-.3-1-2.6-2.2-5.1-1.1-2.5-2.6-6.2-3.2-8.2-.7-2-1.7-3.7-2.2-3.7-.5 0-.8-.3-.7-.8.3-.9-11.1-27.2-12.7-29.2-.7-.8-2.3-4.2-3.6-7.5-1.3-3.3-2.7-6.1-3.1-6.3-.5-.2-.8-1-.8-1.8s-.9-3.2-2-5.3c-1-2.1-1.6-4.1-1.3-4.5.4-.3.1-.6-.5-.6-.7 0-1.2-.9-1.2-2.1 0-1.2-.4-1.7-1.1-1.4-.6.4-.9.1-.7-.7.4-1.6-3.3-10.8-4.4-10.8-.4 0-1-1.6-1.4-3.5-.4-2-1-3.2-1.7-2.8-.6.3-.7.1-.3-.5.6-1-6.2-15.8-8.8-19-3.7-4.6-6.3-6.8-7.3-6.5-.7.3-1.3 0-1.3-.6 0-.5-1.2-1.1-2.7-1.3-1.7-.2-2.9-1-3.1-2.1-.3-1.5.7-1.7 11.2-1.7 8.9 0 11.6-.3 11.6-1.3 0-.7-3.9-5-8.6-9.6-4.7-4.6-8-8-7.2-7.5.7.4.4-.2-.6-1.4-1.1-1.2-2.6-2.2-3.4-2.2-.9 0-1.2-.3-.9-.7.4-.3-1.1-2.4-3.3-4.5-2.2-2.2-4-4.3-4-4.8s-.8-1.1-1.8-1.4c-1-.3-2.4-1.6-3.2-2.7-3.2-4.6-8.3-9.8-9.1-9.3-.5.3-.9-.1-.9-.9 0-.7-1.6-2.6-3.6-4.2s-4-4-4.5-5.3c-.5-1.3-1.8-2.6-2.9-2.9-1.1-.3-1.8-.8-1.5-1.2.6-1-6.7-7.7-7.9-7.3-.6.2-.8.1-.4-.3.3-.4-3.5-4.8-8.5-9.7-5.1-5-8.5-8.7-7.7-8.3 1.3.8 1.3.6.1-.8-.7-.9-1.7-1.5-2.1-1.2-.4.3-.8 5.7-.8 12.1 0 6.4-.4 12-.9 12.5-1.6 1.5-4.2-1.7-4.8-6.1-.4-2.5-1.2-4.8-1.8-5.2-.7-.4-.8-.8-.3-.8.4 0 0-.8-1.1-1.8-1-.9-1.2-1.3-.3-.7 1.3.8 1.3.7.3-.6-.7-.9-3-2.1-5-2.7-4.4-1.4-43.3-2.1-43.3-.9 0 .5-.3.6-.7.4-.9-.6-.1 54.9.8 55.7 2.6 2.7 35.6 3.3 47 1 3.2-.7 7-2.1 8.5-3.3 1.5-1.2 3.3-2.1 4-2.1.7 0 1.8-.8 2.3-1.8.6-.9 1.1-1.3 1.1-.9.1 2.5 9-11.3 9-13.9 0-.8.5-1.4 1.1-1.4.5 0 .8-.4.5-.8-.2-.4.9-.9 2.5-1 3.2-.3 3.5.4 1.9 5.8-3.5 11.6-7 26.3-6.5 27 .3.6-21.6 1-53.5 1-29.8 0-54.6.1-55.3.3-.6.1-1.3-.7-1.5-1.8-.2-1.6.3-2 2.5-2.2 1.5-.1 4.6-.8 6.8-1.5 7.2-2.4 7-.5 7.2-62.1.2-34.1-.1-54.7-.7-54.7-.5 0-.6-.7-.3-1.7.4-1.1.3-1.4-.5-.9-.7.4-1.2.1-1.2-.8 0-1.9-5-4.6-8.5-4.6-3.6 0-6.5-1.7-5.9-3.4.4-1.1 4.2-1.4 18.2-1.4 9.7 0 18.1 0 18.6-.1s-1.6-2.5-4.7-5.4c-3.2-2.9-5.7-5.7-5.7-6.3 0-.5-5.4-6.2-12-12.7-6.6-6.5-11.4-11.5-10.7-11.1.6.4.3-.2-.7-1.4-1.1-1.2-2.6-2.2-3.4-2.2-.9 0-1.2-.3-.9-.7.4-.3-1.1-2.4-3.3-4.5-2.2-2.2-4-4.3-4-4.8s-.9-1.2-2-1.5c-1.1-.3-2-1-2-1.4 0-1.5-9.3-11.1-10.1-10.5-.5.3-.9 0-.9-.6 0-.7-2.6-3.7-5.7-6.7-3.2-3.1-5.1-5.2-4.3-4.8.8.4-4.5-5.1-11.9-12.4-7.9-7.6-13.5-13.9-13.6-15.1-.1-1.3 1-2.9 2.7-4.1 1.5-1.1 2.8-2.5 2.8-3s1.3-2.3 2.9-3.8c1.6-1.6 2.8-3.1 2.7-3.3-.2-.1.9-1.6 2.4-3.2l2.8-2.9 1.1 3.9c.6 2.1 1.1 5.3 1.1 7.1 0 1.7.6 3.8 1.3 4.5.6.7 1.2 1.8 1.2 2.5 0 .6 1.2 2.6 2.7 4.5 1.4 1.8 2.7 3.7 2.8 4.3.2 1.1 5.1 7.5 8.8 11.4 1.2 1.3 2.2 2.8 2.2 3.3s.5.6 1.2.2c.7-.5.9-.2.6.7-.6 1.5 1.6 4.2 2.6 3.2.3-.4.6.2.6 1.2 0 1.1 1.2 3 2.8 4.3 1.5 1.3 2 2 1.2 1.6-.8-.3-.1.6 1.5 2.2 3.6 3.5 8.5 9.9 8.5 11.2 0 2 15.4 15 17.2 14.4.4-.1.8.3.8.9 0 .6.6.9 1.3.6.7-.3 2 .1 3 .8 3.8 2.7 21.3-.8 23.9-4.9.4-.6.8-.7.8-.1 0 .5 2.3-1.4 5-4.3 2.8-2.9 5-5.9 5-6.7 0-.8.6-1.8 1.4-2.2 2-1.2 8.3-18.8 9.1-25.7.4-3.2.8-6.8 1.1-8 .2-1.1 1-10 1.8-19.6.8-9.6 2.2-19.4 3-21.8.8-2.3 1.3-4.2 1-4.2-.3 0 .2-1 1-2.2.9-1.2 1.6-3.1 1.6-4.1 0-1 .4-1.6.9-1.2.5.3 1.3-.5 1.6-1.7.9-2.8 5.4-7.8 7.1-7.8.6 0 1.4-.6 1.7-1.3.5-1.3 7-4.9 8.3-4.7.4.1 1-.3 1.3-.8 1.2-2 16.6-5.3 27-5.9 9.7-.6 10.6-.8 13.3-3.5 1.6-1.5 2.5-2.8 2.1-2.8-.4 0-.1-.6.5-1.2 1.5-1.5 9.2-2 9.2-.6 0 .5.4.7.9.4.5-.4 1.1-.2 1.3.4.1.5 1.3 1.1 2.5 1.3 1.2.2 2.6.6 2.9 1 1.1 1.1 5.4.8 5.4-.3 0-.6.7-1 1.6-1 .9 0 2.9-1 4.6-2.1 2.9-2.1 3-2.1 8.6-.4 10.8 3.2 18.3 2.7 22.5-1.6 2.1-2.3 4-2.4 5.6-.5zM200.8 251.9c.2 2.4-.1 2.8-1.7 2.4-2.6-.7-11.6 2.4-13.3 4.5-1.2 1.6-1.1 1.6.6.2 1.8-1.4 1.8-1.4.6.7-.8 1.2-1.7 2-2.1 1.8-.3-.3-1.2 1.5-1.9 3.8-1 3.2-1.4 18.6-1.6 63.2-.2 32.4-.7 59.1-1.1 59.2-.9.3-6.8-4.7-7-6-.1-.5-1.9-2.8-4.1-5.2-2.2-2.4-3.8-4.6-3.6-4.8.2-.2-.9-1.4-2.6-2.7-1.6-1.3-3-2.9-3-3.7 0-.7-.7-1.6-1.5-1.9-.8-.4-1.3-1-1-1.4.3-.4-.7-1.5-2.1-2.5-1.4-.9-2.3-1.9-2-2.2.7-.7-1.7-3.2-2.6-2.6-.5.2-.8-.1-.8-.8 0-.6-.8-1.8-1.7-2.6-1.2-1-1.3-1.2-.3-.8.8.4.4-.3-.9-1.4-1.3-1.2-2-2.1-1.6-2.1.7 0-8.8-11.6-11.2-13.6-.7-.6-1-1.4-.7-1.7.3-.3-.8-1.5-2.5-2.8-1.7-1.3-3.1-2.8-3.1-3.5 0-.6-1.1-1.9-2.5-2.8-1.4-.9-2.5-2.3-2.5-3.1 0-.8-.5-1.5-1.2-1.5-.6 0-.9-.3-.5-.6.3-.3-.5-1.7-1.9-3.1-1.3-1.3-2.4-2.7-2.4-3.1 0-.4-2.3-3.2-5.1-6.1-2.8-2.9-4.5-5-3.8-4.5.8.4-.2-1.1-2.1-3.4-1.9-2.3-3.8-4.2-4.2-4.2-.5 0-.8-.7-.8-1.5s-1.1-2.2-2.5-3.1c-1.4-.9-2.5-2.1-2.5-2.8 0-1.3-6.2-8.6-7.3-8.6-.4 0-.7 20.1-.7 44.7 0 48.6.2 50.4 5.5 55.7 2.2 2.2 9.2 4.5 11.7 3.8.4-.1 1.2.7 1.8 1.8 1 1.9.4 2.5-2.2 2.2-.3-.1-11-.2-23.7-.2-22.3-.1-23-.2-21.9-2 .7-1.1 1.9-1.8 2.8-1.7 2.4.2 11-2.4 11-3.4 0-.5.7-.9 1.5-.9s1.7-1 2-2.3c.3-1.2.9-4.4 1.5-7 .7-3 1-23.7 1-54.1l-.1-49.2-4.2-4.1c-3.2-3.1-5.6-4.4-10-5.4-4.2-1-5.7-1.8-5.7-3 0-1.6 1.6-1.7 17.7-1.4l17.7.4 2.1 2.7c1.1 1.5 3 3.7 4.2 5 1.2 1.3 2 2.4 1.7 2.4-.4 0 .7 1.5 2.2 3.3 1.6 1.8 4.3 5 5.9 7.2 1.7 2.2 4.5 5.3 6.3 7.1 1.7 1.7 3.2 3.5 3.2 3.9 0 .4 1 1.6 2.3 2.7 1.2 1.1 1.5 1.6.7 1.3-.8-.4-.1.4 1.5 1.9 1.7 1.4 2.6 2.5 2.2 2.6-.4 0-.2.6.5 1.4.7.8 1.7 1.1 2.2.8.5-.3.7.2.3 1.1-.4 1 .4 2.4 2.3 3.8 1.6 1.3 2.6 2.7 2.4 3.1-.3.4-.1.8.5.8.5 0 1.2.8 1.6 1.8.3 1.1 3.1 4.5 6.3 7.8 3.1 3.2 4.8 5.2 3.7 4.4-1.9-1.5-1.9-1.5 0 1.2 1.1 1.5 2.6 2.8 3.4 2.8.8 0 1.1.3.8.6-.4.4.8 2 2.6 3.7 1.7 1.6 2.3 2.4 1.2 1.7-1.1-.7-.6 0 1 1.5 1.7 1.5 3.7 4.2 4.6 5.9.8 1.7 2.1 3 2.8 2.8.7-.1 1 .2.6.8-.3.6 1.2 2.8 3.4 4.9 2.3 2.2 4.1 4.4 4.1 5 0 .6.5 1.1 1 1.1 1.4 0 1.2-72.8-.1-79.1-.6-2.4-1-5-1.1-5.7-.1-.6-.5-1.2-.9-1.2-.5 0-.5-.7-.2-1.7.4-1.1.3-1.4-.5-.9-.7.4-1.2.1-1.2-.9 0-.9-.4-1.4-.9-1.1-.5.4-1.1.2-1.3-.4-.2-.6-3.1-1.6-6.6-2.2-4.8-.9-6.2-1.5-6-2.7.3-1.4 3.2-1.6 23-1.6 12.4 0 23-.3 23.4-.8 1-1 .9-1.1 1.2 2.2zm115.9 150.2c4.3.6 9.2 1.7 10.8 2.4 1.7.7 4.2 1.6 5.6 1.9 1.4.3 3.6 1.4 4.8 2.5 1.3 1.1 3.2 2.3 4.2 2.6 1.1.4 1.9 1.1 1.9 1.6s.7.9 1.6.9c.8 0 1.3.4 1 .9-.3.5.1 1.1.9 1.5.8.3 1.5 1.1 1.5 1.8s.6 2.5 1.4 3.9c3.2 6.1 3.8 20.6 1.2 25.7-.8 1.6-1.2 3.2-.9 3.6.4.3.2.6-.4.6-.6 0-1.6 1.4-2.3 3-.7 1.7-2.2 3.6-3.4 4.2-1.1.6-3.9 2.6-6.1 4.3-2.2 1.8-4.7 3.2-5.5 3.2-.8 0-4.2.9-7.5 1.9-3.3 1-6.7 1.7-7.4 1.5-1.3-.2-1.3 0-.2 1.3.8.9 1 1.6.6 1.6s.8 1.4 2.6 3.1c1.9 1.7 2.7 2.8 1.9 2.4-.8-.4-.1.4 1.5 1.9 1.7 1.4 2.6 2.5 2.2 2.6-.4 0-.2.6.5 1.4.7.8 1.6 1.2 2.1.9.4-.2.7.1.7.8 0 .6.8 1.8 1.8 2.6 1 .9 1.1 1.1.2.7-1.7-.8-2.2-1.6 7.5 10.1 3.2 3.8 6.2 7.1 6.6 7.3.5.2.9 1 .9 1.7 0 .8 1.1 2.2 2.5 3.3 1.4 1.1 2.5 2.4 2.5 3 0 .5 1.1 1.8 2.5 2.8 1.4 1 2.5 2.3 2.5 2.9 0 .5 1.2 2 2.7 3.2 1.4 1.3 2.2 2.3 1.7 2.3-2.4 0 7 5 10.5 5.6 3.1.5 4.1 1.1 4.1 2.5 0 1.8-1.1 1.9-17.1 1.9-11.1 0-16.8-.3-16.4-1 .3-.6.2-1-.3-1s-1.4-1.2-2-2.6c-.7-1.5-1.7-2.2-2.4-1.8-.7.4-.8.3-.4-.4s.2-1.2-.3-1.2c-.6 0-1-.4-.8-1 .1-.5-.9-2-2.3-3.2-1.4-1.3-2.1-2.1-1.5-1.8.6.3-.1-.5-1.5-1.7-1.4-1.3-2.1-2.3-1.6-2.3s-.4-1.2-2-2.6c-1.6-1.5-2.2-2.3-1.4-1.9.8.4.2-.5-1.5-2-1.6-1.4-2.3-2.3-1.5-1.9.8.5.4-.6-1-2.3-1.4-1.7-2.7-2.9-2.9-2.7-.5.5-4.1-4.2-4.1-5.3 0-1.2-3.3-5.3-7.7-9.7-1.8-1.8-3.3-3.9-3.3-4.8 0-.9-.8-2.2-1.7-2.9-1.7-1.3-1.7-1.3-.3.6s1.4 1.9-.2.6c-1-.7-1.5-1.7-1.2-2.2.3-.5-.6-2-2-3.4-1.5-1.4-2.6-2.9-2.6-3.3 0-.4-2.7-.9-5.9-1l-5.9-.2-.7 7.4c-1 10.3 0 40.4 1.4 44 1.4 3.6 4.8 6.7 6.6 6 .7-.3 1.6-.1 2 .5.3.6 2.4 1.1 4.6 1.1 3.2 0 3.9.3 3.9 2 0 2-.7 2-28 2-26.8 0-28-.1-28-1.9 0-1.5 1-2 5.3-2.5 5.9-.8 7.5-1.8 9.7-6 1.3-2.5 1.5-11 1.5-57.9 0-43.3-.3-55.1-1.3-55.5-.6-.2-1-.8-.6-1.3.3-.5 0-.9-.6-.9s-.9-.4-.5-1c.6-.9-5.9-3-10.4-3.3-3.5-.3-5.1-1.7-3.7-3.4 1.4-1.6 59.9-1.8 71.3-.2z"/><path d="M250.3 259.6c-.9.9-1.3 8.6-1.5 25.8-.3 21.3-.1 24.6 1.2 24.7 6.5.3 37.4-.3 40.8-.7 2.7-.4 4.8-1.4 5.7-2.8.9-1.1 1.8-2 2-1.9 1.5.8 1.3.1-.5-1.7-1.1-1.1-2-2.5-2-3.1 0-.5-.4-.8-.9-.5-.5.3-1.5-.2-2.2-1.1-1.2-1.4-1.2-1.6.1-.8 1 .5.8.1-.4-1.3-1-1.2-2.4-1.9-3-1.5-.6.3-.8.2-.3-.2.4-.5-2.1-3.5-5.5-6.8-3.5-3.3-6.2-6.4-6.1-6.9.2-.4-.3-.8-1.1-.8-.7 0-2-.8-2.7-1.8-1.3-1.6-1.2-1.6.6-.3 1.1.8-2.4-2.8-7.7-8.1-5.3-5.3-9.4-9.9-9.1-10.2.7-.7.1-.8-3.7-1.1-1.4-.1-3.1.4-3.7 1.1zM408 420.5c0 .8.5 1.5 1 1.5.6 0 .9.3.8.7-.1.8.6 3.2 2.5 7.3.6 1.4 1 2.8.9 3.2-.1.5.3.8.8.8.6 0 1 .5 1 1.1 0 .5.9 2.9 1.9 5.2 1.1 2.4 2.3 5.5 2.6 7 .4 1.5 1.1 2.7 1.6 2.7s.9.9.9 1.9c0 1.1.6 2.6 1.3 3.3.6.7 1.4 2.2 1.5 3.3.2 1.1.7 2.2 1.2 2.5.4.3 1.3 2.3 2.1 4.5.7 2.2 1.9 4.7 2.6 5.6.7.8 1.3 2.3 1.3 3.2 0 .9.5 1.7 1.1 1.7.5 0 .8.4.5.8-.3.5.8 3.4 2.4 6.5 1.5 3 2.6 5.8 2.3 6.1-.4.3-.1.6.5.6.7 0 1.1.3 1.1.7-.3 2.1.2 3.3 1.2 2.8.6-.4.9-.1.7.6-.3 1.7 2.2 7.9 3.2 7.9.5 0 2-3.3 3.5-7.3 1.5-3.9 3.6-9.2 4.6-11.6 1-2.4 1.6-4.8 1.2-5.4-.3-.5-.1-.7.5-.3.6.3 1.4-.3 1.7-1.5.8-2.6-.3-9.1-1.4-8.4-.5.2-1.5-.3-2.2-1.2-1.2-1.4-1.2-1.6.1-.8 1 .5.8.1-.4-1.3-1-1.2-2.4-1.9-3-1.5-.6.3-.8.3-.4-.2.4-.4-2.1-3.4-5.5-6.7-3.4-3.3-6.2-6.5-6.2-7.1-.1-.7-.7-1.1-1.4-.9-.7.1-1-.1-.7-.6.6-1.1-3.8-5.5-4.6-4.6-.3.3-.9 0-1.4-.7-.5-.8-.3-1 .7-.4 1.2.8 1.2.6 0-.8-.7-.9-2-1.7-2.7-1.7-.8 0-1.3-.4-1.1-.8.1-.5-2-3-4.6-5.5-2.6-2.6-4.5-4.7-4.2-4.7.3 0-1.4-2-3.7-4.5-4.5-4.8-5.8-5.4-5.8-3zM289.8 409.1c-1.6.4-2.8.5-2.8.2 0-.4-.9.4-1.9 1.6-1.8 2-1.9 4.2-2.1 28.6l-.1 26.5h5.8c7.9 0 24.6-2.8 25.5-4.3.4-.7.8-.8.8-.2 0 .6.3.6.8 0 1.2-1.7 6.5-4.9 5.6-3.4-.4.8.6.1 2.3-1.5 1.8-1.7 3-3.3 2.7-3.8-.3-.4-.1-.8.4-.8s1.7-1.8 2.7-4c1.5-3.2 1.7-5.7 1.3-13.7-.3-5.9-1-9.9-1.7-10.1-.6-.2-1.1-1.2-1.1-2.1 0-1-1.2-2.7-2.7-3.7-1.4-1-3.4-2.7-4.4-3.6-.9-.9-2-1.4-2.3-1-.3.3-.6 0-.6-.7s-.4-.9-1-.6c-.5.3-1 .2-1-.4 0-.6-.7-.8-1.5-.5-.8.4-1.5.1-1.5-.4 0-1.8-18.3-3.5-23.2-2.1z"/></svg>